<?xml version="1.0" encoding="UTF-8" standalone="no"?>
<!DOCTYPE svg PUBLIC "-//W3C//DTD SVG 1.1//EN" "http://www.w3.org/Graphics/SVG/1.1/DTD/svg11.dtd">
<svg xmlns:dc="http://purl.org/dc/elements/1.1/" version="1.1" xmlns="http://www.w3.org/2000/svg" xmlns:xl="http://www.w3.org/1999/xlink" viewBox="148.97927 126.63564 555.72456 363.11167" width="555.72456" height="363.11167">
  <defs>
    <linearGradient x1="0" x2="1" id="Gradient" gradientUnits="userSpaceOnUse">
      <stop offset="0" stop-color="#ff9691"/>
      <stop offset=".45238096" stop-color="#eb7e79"/>
      <stop offset="1" stop-color="#d56560"/>
    </linearGradient>
    <linearGradient id="Obj_Gradient" xl:href="#Gradient" gradientTransform="translate(284.57106 253.37748) rotate(90) scale(40)"/>
    <linearGradient id="Obj_Gradient_2" xl:href="#Gradient" gradientTransform="translate(427.5847 276.15577) rotate(90) scale(40)"/>
    <linearGradient id="Obj_Gradient_3" xl:href="#Gradient" gradientTransform="translate(355.4861 316.15577) rotate(90) scale(40)"/>
    <linearGradient id="Obj_Gradient_4" xl:href="#Gradient" gradientTransform="translate(358.68335 220.1762) rotate(90) scale(40)"/>
    <linearGradient id="Obj_Gradient_5" xl:href="#Gradient" gradientTransform="translate(358.68335 378.93407) rotate(90) scale(40)"/>
    <linearGradient x1="0" x2="1" id="Gradient_2" gradientUnits="userSpaceOnUse">
      <stop offset="0" stop-color="#00bfc0"/>
      <stop offset=".45238096" stop-color="#25a7d7"/>
      <stop offset="1" stop-color="#3a8eed"/>
    </linearGradient>
    <linearGradient id="Obj_Gradient_6" xl:href="#Gradient_2" gradientTransform="translate(571.5984 316.15577) rotate(90) scale(40)"/>
    <linearGradient id="Obj_Gradient_7" xl:href="#Gradient_2" gradientTransform="translate(575.7956 349.98316) rotate(90) scale(40)"/>
    <linearGradient x1="0" x2="1" id="Gradient_3" gradientUnits="userSpaceOnUse">
      <stop offset="0" stop-color="#dead26"/>
      <stop offset=".45238096" stop-color="#a7b52e"/>
      <stop offset="1" stop-color="#68bc36"/>
    </linearGradient>
    <linearGradient id="Obj_Gradient_8" xl:href="#Gradient_3" gradientTransform="translate(430.16286 426.98685) rotate(90) scale(40)"/>
  </defs>
  <g id="Canvas_1" fill="none" fill-opacity="1" stroke-opacity="1" stroke-dasharray="none" stroke="none">
    <title>Canvas 1</title>
    <rect fill="white" x="148.97927" y="126.63564" width="555.72456" height="363.11167"/>
    <g id="Canvas_1_Layer_1">
      <title>Layer 1</title>
      <g id="Line_39">
        <line x1="573.197" y1="127.13564" x2="573.197" y2="489.2473" stroke="#7f8080" stroke-linecap="round" stroke-linejoin="round" stroke-dasharray="4.0,4.0" stroke-width="1"/>
      </g>
      <g id="Line_11">
        <line x1="357.1765" y1="177.68607" x2="357.1765" y2="466.98685" stroke="#7f8080" stroke-linecap="round" stroke-linejoin="round" stroke-width="1"/>
      </g>
      <g id="Line_12">
        <line x1="501.1902" y1="177.68607" x2="501.1902" y2="466.98685" stroke="#7f8080" stroke-linecap="round" stroke-linejoin="round" stroke-width="1"/>
      </g>
      <g id="Line_13">
        <line x1="645.2038" y1="177.68607" x2="645.2038" y2="466.98685" stroke="#7f8080" stroke-linecap="round" stroke-linejoin="round" stroke-width="1"/>
      </g>
      <g id="Line_14">
        <line x1="213.16286" y1="177.68607" x2="213.16286" y2="466.98685" stroke="#7f8080" stroke-linecap="round" stroke-linejoin="round" stroke-width="1"/>
      </g>
      <g id="Graphic_2">
        <rect x="149.47927" y="164" width="117" height="46.986854" fill="#c0ffc0"/>
        <rect x="149.47927" y="164" width="117" height="46.986854" stroke="gray" stroke-linecap="round" stroke-linejoin="round" stroke-width="1"/>
        <text transform="translate(154.47927 171.10143)" fill="black">
          <tspan font-family="Helvetica Neue" font-size="14" fill="black" x="28.748" y="13" xml:space="preserve">working </tspan>
          <tspan font-family="Helvetica Neue" font-size="14" fill="black" x="26.018" y="29.392" xml:space="preserve">directory</tspan>
        </text>
      </g>
      <g id="Graphic_4">
        <path d="M 306.489 164 L 401.5515 164 C 408.864 164 408.864 164 408.864 166.93668 L 408.864 165.46834 C 412.52027 165.46834 412.52027 165.46834 412.52027 168.40502 L 412.52027 166.93668 C 416.1765 166.93668 416.1765 166.93668 416.1765 169.87336 L 416.1765 208.05018 C 416.1765 210.98685 416.1765 210.98685 408.864 210.98685 L 313.8015 210.98685 C 306.489 210.98685 306.489 210.98685 306.489 209.51851 C 302.83277 209.51851 302.83277 209.51851 302.83277 208.05018 C 299.1765 208.05018 299.1765 208.05018 299.1765 205.1135 L 299.1765 166.93668 C 299.1765 164 299.1765 164 306.489 164 Z" fill="#ffc0ff"/>
        <path d="M 306.489 164 L 401.5515 164 C 408.864 164 408.864 164 408.864 166.93668 L 408.864 205.1135 C 408.864 208.05018 408.864 208.05018 401.5515 208.05018 L 306.489 208.05018 C 299.1765 208.05018 299.1765 208.05018 299.1765 205.1135 L 299.1765 166.93668 C 299.1765 164 299.1765 164 306.489 164 M 408.864 165.46834 C 412.52027 165.46834 412.52027 165.46834 412.52027 168.40502 L 412.52027 208.05018 C 412.52027 209.51851 412.52027 209.51851 405.20777 209.51851 L 310.14527 209.51851 C 302.83277 209.51851 302.83277 209.51851 302.83277 208.05018 M 412.52027 166.93668 C 416.1765 166.93668 416.1765 166.93668 416.1765 169.87336 L 416.1765 208.05018 C 416.1765 210.98685 416.1765 210.98685 408.864 210.98685 L 313.8015 210.98685 C 306.489 210.98685 306.489 210.98685 306.489 209.51851" stroke="gray" stroke-linecap="round" stroke-linejoin="round" stroke-width="1"/>
        <text transform="translate(306.5165 176.83062)" fill="black">
          <tspan font-family="Helvetica Neue" font-size="14" fill="black" x="6.643502" y="13" xml:space="preserve">staging area</tspan>
        </text>
      </g>
      <g id="Graphic_5">
        <path d="M 450.5027 164 L 545.5652 164 C 552.8777 164 552.8777 164 552.8777 166.93668 L 552.8777 165.46834 C 556.5339 165.46834 556.5339 165.46834 556.5339 168.40502 L 556.5339 166.93668 C 560.1902 166.93668 560.1902 166.93668 560.1902 169.87336 L 560.1902 208.05018 C 560.1902 210.98685 560.1902 210.98685 552.8777 210.98685 L 457.8152 210.98685 C 450.5027 210.98685 450.5027 210.98685 450.5027 209.51851 C 446.8464 209.51851 446.8464 209.51851 446.8464 208.05018 C 443.1902 208.05018 443.1902 208.05018 443.1902 205.1135 L 443.1902 166.93668 C 443.1902 164 443.1902 164 450.5027 164 Z" fill="#ffffc0"/>
        <path d="M 450.5027 164 L 545.5652 164 C 552.8777 164 552.8777 164 552.8777 166.93668 L 552.8777 205.1135 C 552.8777 208.05018 552.8777 208.05018 545.5652 208.05018 L 450.5027 208.05018 C 443.1902 208.05018 443.1902 208.05018 443.1902 205.1135 L 443.1902 166.93668 C 443.1902 164 443.1902 164 450.5027 164 M 552.8777 165.46834 C 556.5339 165.46834 556.5339 165.46834 556.5339 168.40502 L 556.5339 208.05018 C 556.5339 209.51851 556.5339 209.51851 549.2214 209.51851 L 454.1589 209.51851 C 446.8464 209.51851 446.8464 209.51851 446.8464 208.05018 M 556.5339 166.93668 C 560.1902 166.93668 560.1902 166.93668 560.1902 169.87336 L 560.1902 208.05018 C 560.1902 210.98685 560.1902 210.98685 552.8777 210.98685 L 457.8152 210.98685 C 450.5027 210.98685 450.5027 210.98685 450.5027 209.51851" stroke="gray" stroke-linecap="round" stroke-linejoin="round" stroke-width="1"/>
        <text transform="translate(450.5302 168.63462)" fill="black">
          <tspan font-family="Helvetica Neue" font-size="14" fill="black" x="30.373502" y="13" xml:space="preserve">local </tspan>
          <tspan font-family="Helvetica Neue" font-size="14" fill="black" x="13.776502" y="29.392" xml:space="preserve">repository</tspan>
        </text>
      </g>
      <g id="Graphic_6">
        <path d="M 594.5163 164 L 689.5788 164 C 696.8913 164 696.8913 164 696.8913 166.93668 L 696.8913 165.46834 C 700.5476 165.46834 700.5476 165.46834 700.5476 168.40502 L 700.5476 166.93668 C 704.2038 166.93668 704.2038 166.93668 704.2038 169.87336 L 704.2038 208.05018 C 704.2038 210.98685 704.2038 210.98685 696.8913 210.98685 L 601.8288 210.98685 C 594.5163 210.98685 594.5163 210.98685 594.5163 209.51851 C 590.8601 209.51851 590.8601 209.51851 590.8601 208.05018 C 587.2038 208.05018 587.2038 208.05018 587.2038 205.1135 L 587.2038 166.93668 C 587.2038 164 587.2038 164 594.5163 164 Z" fill="yellow"/>
        <path d="M 594.5163 164 L 689.5788 164 C 696.8913 164 696.8913 164 696.8913 166.93668 L 696.8913 205.1135 C 696.8913 208.05018 696.8913 208.05018 689.5788 208.05018 L 594.5163 208.05018 C 587.2038 208.05018 587.2038 208.05018 587.2038 205.1135 L 587.2038 166.93668 C 587.2038 164 587.2038 164 594.5163 164 M 696.8913 165.46834 C 700.5476 165.46834 700.5476 165.46834 700.5476 168.40502 L 700.5476 208.05018 C 700.5476 209.51851 700.5476 209.51851 693.2351 209.51851 L 598.1726 209.51851 C 590.8601 209.51851 590.8601 209.51851 590.8601 208.05018 M 700.5476 166.93668 C 704.2038 166.93668 704.2038 166.93668 704.2038 169.87336 L 704.2038 208.05018 C 704.2038 210.98685 704.2038 210.98685 696.8913 210.98685 L 601.8288 210.98685 C 594.5163 210.98685 594.5163 210.98685 594.5163 209.51851" stroke="gray" stroke-linecap="round" stroke-linejoin="round" stroke-width="1"/>
        <text transform="translate(594.5438 168.63462)" fill="black">
          <tspan font-family="Helvetica Neue" font-size="14" fill="black" x="23.100502" y="13" xml:space="preserve">remote </tspan>
          <tspan font-family="Helvetica Neue" font-size="14" fill="black" x="13.776502" y="29.392" xml:space="preserve">repository</tspan>
        </text>
      </g>
      <g id="Graphic_29">
        <path d="M 214.16286 283.37748 L 214.16286 263.37748 L 334.97926 263.37748 L 334.97926 253.37748 L 354.97927 273.37748 L 334.97926 293.37748 L 334.97926 283.37748 Z" fill="url(#Obj_Gradient)"/>
        <text transform="translate(236.7649 265.37748)" fill="white">
          <tspan font-family="Courier New" font-weight="bold" font-size="14" fill="white" x="18.401367" y="12" xml:space="preserve">git add</tspan>
        </text>
      </g>
      <g id="Graphic_31">
        <path d="M 357.1765 306.15578 L 357.1765 286.15577 L 477.9929 286.15577 L 477.9929 276.15577 L 497.9929 296.15577 L 477.9929 316.15577 L 477.9929 306.15578 Z" fill="url(#Obj_Gradient_2)"/>
        <text transform="translate(379.77857 288.15577)" fill="white">
          <tspan font-family="Courier New" font-weight="bold" font-size="14" fill="white" x="5.7993164" y="12" xml:space="preserve">git commit</tspan>
        </text>
      </g>
      <g id="Graphic_32">
        <path d="M 212.97927 346.15578 L 212.97927 326.15577 L 477.9929 326.15577 L 477.9929 316.15577 L 497.9929 336.15577 L 477.9929 356.15577 L 477.9929 346.15578 Z" fill="url(#Obj_Gradient_3)"/>
        <text transform="translate(253.60597 328.15577)" fill="white">
          <tspan font-family="Courier New" font-weight="bold" font-size="14" fill="white" x="59.87328" y="12" xml:space="preserve">git commit</tspan>
        </text>
      </g>
      <g id="Graphic_33">
        <path d="M 501.1902 250.1762 L 501.1902 230.1762 L 236.17652 230.1762 L 236.17652 220.1762 L 216.17652 240.1762 L 236.17652 260.1762 L 236.17652 250.1762 Z" fill="url(#Obj_Gradient_4)"/>
        <text transform="translate(256.80322 232.1762)" fill="white">
          <tspan font-family="Courier New" font-weight="bold" font-size="14" fill="white" x="51.471916" y="12" xml:space="preserve">git checkout</tspan>
        </text>
      </g>
      <g id="Graphic_34">
        <path d="M 501.1902 408.93407 L 501.1902 388.93407 L 236.17652 388.93407 L 236.17652 378.93407 L 216.17652 398.93407 L 236.17652 418.93407 L 236.17652 408.93407 Z" fill="url(#Obj_Gradient_5)"/>
        <text transform="translate(256.80322 390.93407)" fill="white">
          <tspan font-family="Courier New" font-weight="bold" font-size="14" fill="white" x="64.07397" y="12" xml:space="preserve">git merge</tspan>
        </text>
      </g>
      <g id="Graphic_35">
        <path d="M 501.1902 346.15578 L 501.1902 326.15577 L 622.0066 326.15577 L 622.0066 316.15577 L 642.0066 336.15577 L 622.0066 356.15577 L 622.0066 346.15578 Z" fill="url(#Obj_Gradient_6)"/>
        <text transform="translate(523.7922 328.15577)" fill="white">
          <tspan font-family="Courier New" font-weight="bold" font-size="14" fill="white" x="14.200684" y="12" xml:space="preserve">git push</tspan>
        </text>
      </g>
      <g id="Graphic_36">
        <path d="M 646.2038 379.98317 L 646.2038 359.98316 L 525.3874 359.98316 L 525.3874 349.98316 L 505.3874 369.98316 L 525.3874 389.98316 L 525.3874 379.98317 Z" fill="url(#Obj_Gradient_7)"/>
        <text transform="translate(527.9895 361.98316)" fill="white">
          <tspan font-family="Courier New" font-weight="bold" font-size="14" fill="white" x="10" y="12" xml:space="preserve">git fetch</tspan>
        </text>
      </g>
      <g id="Graphic_38">
        <path d="M 646.16286 456.98686 L 646.16286 436.98685 L 234.16286 436.98685 L 234.16286 426.98685 L 214.16286 446.98685 L 234.16286 466.98685 L 234.16286 456.98686 Z" fill="url(#Obj_Gradient_8)"/>
        <text transform="translate(273.16286 438.98685)" fill="white">
          <tspan font-family="Courier New" font-weight="bold" font-size="14" fill="white" x="18.377441" y="12" xml:space="preserve">git pull = git fetch &amp;&amp; git merge</tspan>
        </text>
      </g>
      <g id="Graphic_40">
        <text transform="translate(331.7561 132.13564)" fill="black">
          <tspan font-family="Helvetica Neue" font-weight="bold" font-size="14" fill="black" x="0" y="14" xml:space="preserve">LOCAL</tspan>
        </text>
      </g>
      <g id="Graphic_41">
        <text transform="translate(615.5058 132.13564)" fill="black">
          <tspan font-family="Helvetica Neue" font-weight="bold" font-size="14" fill="black" x="31974423e-20" y="14" xml:space="preserve">REMOTE</tspan>
        </text>
      </g>
    </g>
  </g>
</svg>
