<?xml version="1.0" encoding="UTF-8"?>
<!DOCTYPE svg PUBLIC "-//W3C//DTD SVG 1.1//EN" "http://www.w3.org/Graphics/SVG/1.1/DTD/svg11.dtd">
<svg version="1.1" xmlns="http://www.w3.org/2000/svg" xmlns:xlink="http://www.w3.org/1999/xlink" x="0" y="0" width="67.098" height="85.923" viewBox="0, 0, 67.098, 85.923">
 <g transform="scale(1.)">
  <g id="Layer_1" transform="translate(-357.55, -551.212)">
    <path d="M379.135,595.767 L379.135,585.276" fill-opacity="0" stroke="#F03C2F" stroke-width="2"/>
    <path d="M389.624,576.137 L404.486,576.137" fill-opacity="0" stroke="#F03C2F" stroke-width="2"/>
    <path d="M413.505,585.713 L413.505,595.33" fill-opacity="0" stroke="#F03C2F" stroke-width="2"/>
    <path d="M378.635,587.28 C372.205,587.28 366.992,582.067 366.992,575.637 C366.992,569.206 372.205,563.993 378.635,563.993 C385.066,563.993 390.279,569.206 390.279,575.637 C390.279,582.067 385.066,587.28 378.635,587.28 z" fill="#F37B00"/>
    <g>
      <path d="M395.993,592.212 L361.174,592.299 C360.211,592.301 359.287,592.686 358.608,593.369 C357.928,594.052 357.547,594.977 357.55,595.941 L357.57,603.17 L366.74,603.148 C367.463,601.673 368.96,600.736 370.602,600.731 C372.256,600.728 373.765,601.67 374.49,603.155 L383.33,603.132 C384.048,601.642 385.554,600.693 387.208,600.69 C388.354,600.687 389.454,601.14 390.267,601.948 C391.079,602.756 391.537,603.854 391.54,605 C391.544,607.388 389.614,609.328 387.226,609.335 C385.482,609.338 383.907,608.293 383.232,606.684 L374.989,606.706 L385.863,617.526 C387.181,617.076 388.634,617.289 389.768,618.098 C390.902,618.907 391.576,620.212 391.579,621.604 C391.582,622.75 391.13,623.851 390.321,624.663 C389.513,625.475 388.415,625.933 387.269,625.936 C386.123,625.939 385.023,625.487 384.21,624.678 C383.398,623.87 382.94,622.771 382.937,621.625 C382.935,621.053 383.047,620.486 383.265,619.957 L372.291,609.037 C371.229,609.482 370.034,609.486 368.97,609.047 C367.906,608.609 367.06,607.765 366.62,606.701 L357.578,606.723 L357.633,630.597 C357.64,632.603 359.27,634.224 361.275,634.221 L396.097,634.135 C398.102,634.128 399.723,632.499 399.72,630.494 L399.635,595.835 C399.628,593.83 397.998,592.209 395.993,592.212" fill="#F03C2E" id="Layer_1"/>
      <text transform="matrix(1, 0, 0, 1, 374.794, 624.347)">
        <tspan x="-17.244" y="6.213" font-family="Palatino-Bold" font-size="18" fill="#FFFFFF">git </tspan>
      </text>
    </g>
    <path d="M413.005,587.28 C406.574,587.28 401.361,582.067 401.361,575.637 C401.361,569.206 406.574,563.993 413.005,563.993 C419.435,563.993 424.648,569.206 424.648,575.637 C424.648,582.067 419.435,587.28 413.005,587.28 z" fill="#006CAA"/>
    <path d="M413.005,615.498 C406.574,615.498 401.361,610.285 401.361,603.855 C401.361,597.424 406.574,592.212 413.005,592.212 C419.435,592.212 424.648,597.424 424.648,603.855 C424.648,610.285 419.435,615.498 413.005,615.498 z" fill="#AB2495"/>
    <text transform="matrix(1, 0, 0, 1, 379.821, 571.712)">
      <tspan x="-9.589" y="10.5" font-family="Palatino-Bold" font-size="30" fill="#FFFFFF">o</tspan>
    </text>
    <text transform="matrix(1, 0, 0, 1, 412.892, 571.712)">
      <tspan x="-8.342" y="10.5" font-family="Palatino-Bold" font-size="30" fill="#FFFFFF">o</tspan>
    </text>
    <text transform="matrix(1, 0, 0, 1, 412.892, 598.083)">
      <tspan x="-9.163" y="10.5" font-family="Palatino-Bold" font-size="30" fill="#FFFFFF">p</tspan>
    </text>
  </g>
  </g>
</svg>
